<svg width="44" height="44" viewBox="0 0 44 44" fill="none" xmlns="http://www.w3.org/2000/svg">
<rect width="44" height="44" rx="6" fill="#F3F5F7"/>
<g clip-path="url(#clip0_2691_4741)">
<path d="M21.9999 19.3334C20.5272 19.3334 19.3333 20.5273 19.3333 22C19.3333 23.4728 20.5272 24.6667 21.9999 24.6667C23.4727 24.6667 24.6666 23.4728 24.6666 22C24.6666 20.5273 23.4727 19.3334 21.9999 19.3334ZM21.9999 19.3334H28.1133M16.6333 18.04L19.6933 23.3334M21.2533 28.6267L24.3066 23.3334M28.6666 22C28.6666 25.6819 25.6818 28.6667 21.9999 28.6667C18.318 28.6667 15.3333 25.6819 15.3333 22C15.3333 18.3181 18.318 15.3334 21.9999 15.3334C25.6818 15.3334 28.6666 18.3181 28.6666 22Z" stroke="#7F7F7F" stroke-width="1.5" stroke-linecap="round" stroke-linejoin="round"/>
</g>
<defs>
<clipPath id="clip0_2691_4741">
<rect width="16" height="16" fill="white" transform="translate(14 14)"/>
</clipPath>
</defs>
</svg>
