<svg width="16" height="16" viewBox="0 0 16 16" fill="none" xmlns="http://www.w3.org/2000/svg">
<path d="M11.6231 6.86026L9.13975 4.37687M2 14L4.10117 13.7665C4.35789 13.738 4.48624 13.7238 4.60622 13.6849C4.71266 13.6505 4.81395 13.6018 4.90735 13.5402C5.01263 13.4708 5.10395 13.3794 5.28659 13.1968L13.4857 4.99772C14.1714 4.31195 14.1714 3.2001 13.4857 2.51433C12.7999 1.82856 11.6881 1.82856 11.0023 2.51433L2.80321 10.7134C2.62056 10.896 2.52924 10.9874 2.45982 11.0926C2.39823 11.186 2.34955 11.2873 2.31509 11.3938C2.27625 11.5138 2.26199 11.6421 2.23346 11.8988L2 14Z" stroke="#6B6F76" stroke-width="1.5" stroke-linecap="round" stroke-linejoin="round"/>
</svg>
