<svg width="16" height="16" viewBox="0 0 16 16" fill="none" xmlns="http://www.w3.org/2000/svg">
<path d="M11.1111 6.1333C11.1111 5.81483 10.9896 5.49636 10.7466 5.25338C10.5037 5.01039 10.1852 4.88889 9.86669 4.88889M9.86669 9.86667C11.9286 9.86667 13.6 8.1952 13.6 6.13333C13.6 4.07147 11.9286 2.4 9.86669 2.4C7.80483 2.4 6.13336 4.07147 6.13336 6.13333C6.13336 6.30362 6.14476 6.47125 6.16684 6.63549C6.20316 6.90562 6.22131 7.04069 6.20909 7.12615C6.19636 7.21516 6.18015 7.26313 6.13627 7.34163C6.09416 7.41698 6.01993 7.4912 5.87148 7.63965L2.69162 10.8195C2.584 10.9271 2.53019 10.9809 2.49171 11.0437C2.4576 11.0994 2.43246 11.1601 2.41722 11.2236C2.40002 11.2952 2.40002 11.3713 2.40002 11.5235V12.6044C2.40002 12.9529 2.40002 13.1272 2.46784 13.2603C2.5275 13.3773 2.62269 13.4725 2.73976 13.5322C2.87286 13.6 3.0471 13.6 3.39558 13.6H4.88891V12.3556H6.13336V11.1111H7.3778L8.36037 10.1285C8.50882 9.98009 8.58305 9.90587 8.6584 9.86375C8.73689 9.81988 8.78486 9.80367 8.87388 9.79093C8.95933 9.77871 9.0944 9.79687 9.36453 9.83319C9.52878 9.85527 9.6964 9.86667 9.86669 9.86667Z" stroke="#6B6F76" stroke-width="1.5" stroke-linecap="round" stroke-linejoin="round"/>
</svg>
