<svg width="43" height="10" viewBox="0 0 43 10" fill="none" xmlns="http://www.w3.org/2000/svg">
<path d="M8.91 9H5.346L5.236 7.988H3.674L3.564 9H0L2.178 0.53H6.732L8.91 9ZM4.158 3.665L4.037 4.721H4.873L4.752 3.665H4.158ZM16.6389 6.712C16.5215 7.482 16.1145 8.087 15.4179 8.527C14.7212 8.95967 13.8082 9.176 12.6789 9.176C11.5495 9.176 10.6365 8.95967 9.93988 8.527C9.25054 8.09433 8.84354 7.49667 8.71888 6.734C8.68954 6.52867 8.66388 6.25367 8.64188 5.909C8.62721 5.557 8.61988 5.17933 8.61988 4.776C8.61988 4.38733 8.62721 4.028 8.64188 3.698C8.66388 3.36067 8.68954 3.09667 8.71888 2.906C8.84354 2.09933 9.25421 1.47233 9.95088 1.025C10.6475 0.577666 11.5569 0.354 12.6789 0.354C13.8082 0.354 14.7212 0.577666 15.4179 1.025C16.1145 1.465 16.5215 2.07733 16.6389 2.862C16.6682 3.05267 16.6902 3.31667 16.7049 3.654C16.7269 3.984 16.7379 4.347 16.7379 4.743C16.7379 5.161 16.7269 5.54233 16.7049 5.887C16.6902 6.23167 16.6682 6.50667 16.6389 6.712ZM12.9759 6.206V3.324C12.9759 3.126 12.8769 3.027 12.6789 3.027C12.4809 3.027 12.3819 3.126 12.3819 3.324V6.206C12.3819 6.404 12.4809 6.503 12.6789 6.503C12.8769 6.503 12.9759 6.404 12.9759 6.206ZM25.1574 6.712C25.0401 7.482 24.6331 8.087 23.9364 8.527C23.2398 8.95967 22.3268 9.176 21.1974 9.176C20.0681 9.176 19.1551 8.95967 18.4584 8.527C17.7691 8.09433 17.3621 7.49667 17.2374 6.734C17.2081 6.52867 17.1824 6.25367 17.1604 5.909C17.1458 5.557 17.1384 5.17933 17.1384 4.776C17.1384 4.38733 17.1458 4.028 17.1604 3.698C17.1824 3.36067 17.2081 3.09667 17.2374 2.906C17.3621 2.09933 17.7728 1.47233 18.4694 1.025C19.1661 0.577666 20.0754 0.354 21.1974 0.354C22.3268 0.354 23.2398 0.577666 23.9364 1.025C24.6331 1.465 25.0401 2.07733 25.1574 2.862C25.1868 3.05267 25.2088 3.31667 25.2234 3.654C25.2454 3.984 25.2564 4.347 25.2564 4.743C25.2564 5.161 25.2454 5.54233 25.2234 5.887C25.2088 6.23167 25.1868 6.50667 25.1574 6.712ZM21.4944 6.206V3.324C21.4944 3.126 21.3954 3.027 21.1974 3.027C20.9994 3.027 20.9004 3.126 20.9004 3.324V6.206C20.9004 6.404 20.9994 6.503 21.1974 6.503C21.3954 6.503 21.4944 6.404 21.4944 6.206ZM33.555 0.53V3.797H31.432V9H27.769V3.797H25.635V0.53H33.555ZM38.4495 2.906V0.53H42.0135V9H38.4495V6.272H37.5585V9H33.9945V0.53H37.5585V2.906H38.4495Z" fill="#6B6F76"/>
</svg>
