<svg width="44" height="44" viewBox="0 0 44 44" fill="none" xmlns="http://www.w3.org/2000/svg">
<rect width="44" height="44" rx="6" fill="#F3F5F7"/>
<g clip-path="url(#clip0_2691_4730)">
<path d="M20.8039 20.4084V18.2344C20.8039 17.9893 21.0026 17.7906 21.2477 17.7906H22.7785C23.0236 17.7906 23.2222 17.9893 23.2222 18.2344V22.2139C23.2222 22.2748 23.1918 22.3212 23.1614 22.3669L22.7785 22.7498C22.6864 22.8419 22.6864 22.9797 22.7785 23.0558L23.1614 23.4386C23.1819 23.4582 23.198 23.4821 23.2086 23.5085C23.2191 23.5349 23.2237 23.5633 23.2222 23.5916V25.7648C23.2222 25.8825 23.1755 25.9954 23.0923 26.0786C23.009 26.1618 22.8962 26.2086 22.7785 26.2086H21.2477C21.13 26.2086 21.0171 26.1618 20.9339 26.0786C20.8507 25.9954 20.8039 25.8825 20.8039 25.7648V21.7853C20.8039 21.7244 20.8344 21.678 20.8648 21.6323L21.2477 21.2494C21.3398 21.1573 21.3398 21.0195 21.2477 20.9434L20.8648 20.5606C20.8443 20.5411 20.8282 20.5174 20.8177 20.4911C20.8072 20.4649 20.8025 20.4366 20.8039 20.4084ZM27.7064 22C27.7064 21.2503 27.5587 20.5079 27.2718 19.8153C26.9849 19.1227 26.5644 18.4933 26.0343 17.9632C25.5042 17.4331 24.8748 17.0126 24.1822 16.7257C23.4895 16.4388 22.7472 16.2911 21.9975 16.2911C21.2478 16.2911 20.5054 16.4388 19.8128 16.7257C19.1201 17.0126 18.4908 17.4331 17.9607 17.9632C17.4305 18.4933 17.01 19.1227 16.7231 19.8153C16.4362 20.5079 16.2886 21.2503 16.2886 22C16.2886 23.5141 16.89 24.9662 17.9607 26.0368C19.0313 27.1074 20.4834 27.7089 21.9975 27.7089C23.5116 27.7089 24.9637 27.1074 26.0343 26.0368C27.1049 24.9662 27.7064 23.5141 27.7064 22ZM29.5127 22C29.5127 26.1477 26.1452 29.5 22.0127 29.5C17.865 29.5 14.5127 26.1325 14.5127 22C14.5127 17.8523 17.8802 14.5 22.0127 14.5C26.1452 14.5 29.5127 17.8523 29.5127 22Z" fill="#7F7F7F"/>
</g>
<defs>
<clipPath id="clip0_2691_4730">
<rect width="16" height="16" fill="white" transform="translate(14 14)"/>
</clipPath>
</defs>
</svg>
