<svg width="44" height="44" viewBox="0 0 44 44" fill="none" xmlns="http://www.w3.org/2000/svg">
<rect width="44" height="44" rx="6" fill="#F3F5F7"/>
<path d="M25.3333 20C25.3333 19.6587 25.2031 19.3175 24.9428 19.0572C24.6825 18.7968 24.3412 18.6667 24 18.6667M24 24C26.2091 24 28 22.2091 28 20C28 17.7909 26.2091 16 24 16C21.7909 16 20 17.7909 20 20C20 20.1825 20.0122 20.3621 20.0359 20.538C20.0748 20.8275 20.0942 20.9722 20.0811 21.0637C20.0675 21.1591 20.0501 21.2105 20.0031 21.2946C19.958 21.3753 19.8785 21.4549 19.7194 21.6139L16.3124 25.0209C16.1971 25.1362 16.1395 25.1939 16.0982 25.2611C16.0617 25.3208 16.0348 25.3858 16.0184 25.4538C16 25.5306 16 25.6121 16 25.7752V26.9333C16 27.3067 16 27.4934 16.0727 27.636C16.1366 27.7614 16.2386 27.8634 16.364 27.9273C16.5066 28 16.6933 28 17.0667 28H18.6667V26.6667H20V25.3333H21.3333L22.3861 24.2806C22.5451 24.1215 22.6247 24.042 22.7054 23.9969C22.7895 23.9499 22.8409 23.9325 22.9363 23.9189C23.0278 23.9058 23.1725 23.9252 23.462 23.9641C23.6379 23.9878 23.8175 24 24 24Z" stroke="#7F7F7F" stroke-width="1.5" stroke-linecap="round" stroke-linejoin="round"/>
</svg>
