<svg width="17" height="16" viewBox="0 0 17 16" fill="none" xmlns="http://www.w3.org/2000/svg">
<path d="M8.49998 11.6666H8.50665M5.96665 14.6666H11.0333C11.78 14.6666 12.1534 14.6666 12.4386 14.5213C12.6895 14.3934 12.8935 14.1895 13.0213 13.9386C13.1666 13.6534 13.1666 13.28 13.1666 12.5333V3.46659C13.1666 2.71985 13.1666 2.34648 13.0213 2.06126C12.8935 1.81038 12.6895 1.60641 12.4386 1.47858C12.1534 1.33325 11.78 1.33325 11.0333 1.33325H5.96665C5.21991 1.33325 4.84654 1.33325 4.56133 1.47858C4.31044 1.60641 4.10647 1.81038 3.97864 2.06126C3.83331 2.34648 3.83331 2.71985 3.83331 3.46659V12.5333C3.83331 13.28 3.83331 13.6534 3.97864 13.9386C4.10647 14.1895 4.31044 14.3934 4.56133 14.5213C4.84654 14.6666 5.21991 14.6666 5.96665 14.6666ZM8.83331 11.6666C8.83331 11.8507 8.68407 11.9999 8.49998 11.9999C8.31588 11.9999 8.16665 11.8507 8.16665 11.6666C8.16665 11.4825 8.31588 11.3333 8.49998 11.3333C8.68407 11.3333 8.83331 11.4825 8.83331 11.6666Z" stroke="#7F7F7F" stroke-width="1.5" stroke-linecap="round" stroke-linejoin="round"/>
</svg>
