<svg width="16" height="16" viewBox="0 0 16 16" fill="none" xmlns="http://www.w3.org/2000/svg">
<path d="M13.6167 4.77308C13.5312 4.83608 12.0218 5.64397 12.0218 7.44037C12.0218 9.51818 13.9425 10.2533 14 10.2715C13.9912 10.3162 13.6948 11.2781 12.9873 12.2583C12.3564 13.1207 11.6976 13.9818 10.6952 13.9818C9.69291 13.9818 9.43498 13.4287 8.27784 13.4287C7.15021 13.4287 6.74928 14 5.83245 14C4.9156 14 4.27588 13.2019 3.54034 12.2218C2.68836 11.0709 2 9.28291 2 7.58597C2 4.86409 3.86316 3.42054 5.69684 3.42054C6.67116 3.42054 7.48335 4.02821 8.09508 4.02821C8.67726 4.02821 9.58531 3.38414 10.6937 3.38414C11.1139 3.38414 12.6233 3.42054 13.6167 4.77308ZM10.1676 2.23182C10.6259 1.71517 10.9503 0.998298 10.9503 0.281428C10.9503 0.182018 10.9414 0.0812084 10.9223 0C10.1764 0.0266027 9.28899 0.471848 8.75398 1.0613C8.33385 1.51495 7.94176 2.23182 7.94176 2.95849C7.94176 3.06771 7.96092 3.17691 7.9698 3.21192C8.01697 3.22032 8.09361 3.23012 8.17025 3.23012C8.83946 3.23012 9.68112 2.80448 10.1676 2.23182Z" fill="black"/>
</svg>
