<svg width="16" height="16" viewBox="0 0 16 16" fill="none" xmlns="http://www.w3.org/2000/svg">
<path d="M5.14981 7.46537C4.94085 7.24181 4.61205 7.2541 4.47223 7.54219L1.03899 14.4048C1.00767 14.4674 0.992879 14.5369 0.996019 14.6068C0.999159 14.6768 1.02013 14.7447 1.05693 14.8042C1.09373 14.8637 1.14514 14.9128 1.20627 14.9469C1.26741 14.9809 1.33623 14.9987 1.4062 14.9987H6.18693C6.26393 15.0002 6.33969 14.9792 6.40492 14.9382C6.47014 14.8973 6.52201 14.8382 6.55414 14.7682C7.58512 12.641 6.96054 9.39978 5.14981 7.46537Z" fill="url(#paint0_linear_2502_832)"/>
<path d="M7.66883 1.22039C5.74824 4.2626 5.875 7.63208 7.14029 10.1611L9.44499 14.7705C9.47857 14.8394 9.53076 14.8975 9.59567 14.9382C9.66057 14.979 9.73558 15.0007 9.81221 15.001H14.5929C14.6629 15.001 14.7317 14.9832 14.7929 14.9492C14.854 14.9151 14.9054 14.866 14.9422 14.8065C14.979 14.747 15 14.6791 15.0031 14.6092C15.0063 14.5393 14.9915 14.4697 14.9601 14.4071C14.9601 14.4071 8.52849 1.53844 8.37023 1.21808C8.22196 0.929997 7.85474 0.923851 7.66883 1.22039Z" fill="#2681FF"/>
<defs>
<linearGradient id="paint0_linear_2502_832" x1="7.03199" y1="8.52553" x2="3.40822" y2="14.802" gradientUnits="userSpaceOnUse">
<stop stop-color="#0052CC"/>
<stop offset="0.92" stop-color="#2684FF"/>
</linearGradient>
</defs>
</svg>
