<svg width="16" height="16" viewBox="0 0 16 16" fill="none" xmlns="http://www.w3.org/2000/svg">
<g clip-path="url(#clip0_2502_831)">
<path d="M0.519254 0.768994C0.44444 0.768029 0.370321 0.783452 0.302102 0.814182C0.233882 0.84491 0.173216 0.890198 0.124362 0.94687C0.0755086 1.00354 0.0396522 1.07021 0.0193102 1.14222C-0.00103186 1.21422 -0.00536625 1.28981 0.00661131 1.36366L2.18278 14.5745C2.2099 14.7362 2.2931 14.883 2.41779 14.9894C2.54249 15.0959 2.70068 15.155 2.8646 15.1563H13.3046C13.4274 15.1579 13.5468 15.1153 13.6409 15.0362C13.735 14.9572 13.7976 14.847 13.8172 14.7257L15.9934 1.36622C16.0054 1.29237 16.001 1.21678 15.9807 1.14478C15.9603 1.07278 15.9245 1.0061 15.8756 0.94943C15.8268 0.892766 15.7661 0.84747 15.6979 0.816742C15.6297 0.786016 15.5556 0.770592 15.4807 0.771557L0.519254 0.768994ZM9.68272 10.317H6.35057L5.44832 5.60322H10.4902L9.68272 10.317Z" fill="#2684FF"/>
<path d="M15.3013 5.60321H10.4902L9.68272 10.3169H6.35055L2.41602 14.9871C2.54072 15.0949 2.69972 15.1549 2.86458 15.1563H13.3071C13.43 15.1579 13.5494 15.1153 13.6434 15.0362C13.7375 14.9572 13.8001 14.847 13.8198 14.7257L15.3013 5.60321Z" fill="url(#paint0_linear_2502_831)"/>
</g>
<defs>
<linearGradient id="paint0_linear_2502_831" x1="16.4138" y1="6.92327" x2="8.46264" y2="13.1288" gradientUnits="userSpaceOnUse">
<stop offset="0.18" stop-color="#0052CC"/>
<stop offset="1" stop-color="#2684FF"/>
</linearGradient>
<clipPath id="clip0_2502_831">
<rect width="16" height="16" fill="white"/>
</clipPath>
</defs>
</svg>
