<svg width="16" height="16" viewBox="0 0 16 16" fill="none" xmlns="http://www.w3.org/2000/svg">
<g clip-path="url(#clip0_2502_836)">
<path d="M13.5535 2.79193C12.5178 2.30734 11.4104 1.95517 10.2526 1.75464C10.1104 2.01171 9.94432 2.35748 9.82976 2.63254C8.59904 2.44745 7.37956 2.44745 6.17144 2.63254C6.05693 2.35748 5.88704 2.01171 5.74358 1.75464C4.58454 1.95517 3.47584 2.30864 2.44013 2.79449C0.351095 5.95129 -0.215207 9.02968 0.0679444 12.0644C1.4535 13.099 2.79627 13.7276 4.11638 14.139C4.44233 13.6903 4.73302 13.2134 4.98345 12.7109C4.5065 12.5297 4.04969 12.306 3.61805 12.0464C3.73256 11.9615 3.84457 11.8729 3.95278 11.7816C6.58546 13.013 9.44592 13.013 12.0471 11.7816C12.1566 11.8729 12.2686 11.9615 12.3819 12.0464C11.949 12.3073 11.491 12.531 11.014 12.7122C11.2644 13.2134 11.5538 13.6916 11.881 14.1402C13.2024 13.7289 14.5464 13.1004 15.932 12.0644C16.2642 8.5464 15.3645 5.49628 13.5535 2.79193ZM5.34212 10.1981C4.55182 10.1981 3.9037 9.46024 3.9037 8.56184C3.9037 7.66337 4.53798 6.92429 5.34212 6.92429C6.14628 6.92429 6.79438 7.66207 6.78054 8.56184C6.78178 9.46024 6.14628 10.1981 5.34212 10.1981ZM10.6578 10.1981C9.86752 10.1981 9.21944 9.46024 9.21944 8.56184C9.21944 7.66337 9.85368 6.92429 10.6578 6.92429C11.462 6.92429 12.1101 7.66207 12.0962 8.56184C12.0962 9.46024 11.462 10.1981 10.6578 10.1981Z" fill="#5865F2"/>
</g>
<defs>
<clipPath id="clip0_2502_836">
<rect width="16" height="16" fill="white"/>
</clipPath>
</defs>
</svg>
