<svg width="16" height="16" viewBox="0 0 16 16" fill="none" xmlns="http://www.w3.org/2000/svg">
<path d="M8 15C11.866 15 15 11.866 15 7.99997C15 4.13401 11.866 1 8 1C4.134 1 1 4.13401 1 7.99997C1 11.866 4.134 15 8 15Z" fill="#1977F3"/>
<path d="M10.6065 10.1416L10.9172 8.16548H8.97241V6.88336C8.97241 6.34321 9.24363 5.81556 10.1154 5.81556H11V4.1336C11 4.1336 10.1973 4 9.43 4C7.82844 4 6.78107 4.94574 6.78107 6.65942V8.16548H5V10.1416H6.78107V14.9174C7.13809 14.9721 7.50398 15 7.87671 15C8.24951 15 8.6154 14.9712 8.97241 14.9174V10.1416H10.6065Z" fill="white"/>
</svg>
