<svg width="16" height="16" viewBox="0 0 16 16" fill="none" xmlns="http://www.w3.org/2000/svg">
<path fill-rule="evenodd" clip-rule="evenodd" d="M7.97914 1C4.11986 1 1 4.20833 1 8.17748C1 11.3502 2.999 14.0359 5.77214 14.9864C6.11886 15.0579 6.24586 14.832 6.24586 14.642C6.24586 14.4756 6.23443 13.9052 6.23443 13.311C4.293 13.7388 3.88871 12.4554 3.88871 12.4554C3.57671 11.6235 3.11443 11.4097 3.11443 11.4097C2.479 10.97 3.16071 10.97 3.16071 10.97C3.86557 11.0176 4.23543 11.7068 4.23543 11.7068C4.85929 12.8 5.86457 12.4911 6.269 12.3009C6.32671 11.8375 6.51171 11.5166 6.70814 11.3384C5.15971 11.172 3.53057 10.5541 3.53057 7.79715C3.53057 7.01285 3.80771 6.37119 4.24686 5.87215C4.17757 5.69394 3.93486 4.95704 4.31629 3.97077C4.31629 3.97077 4.90557 3.7806 6.23429 4.70752C6.80316 4.55041 7.38982 4.47049 7.97914 4.46981C8.56843 4.46981 9.16914 4.55308 9.72386 4.70752C11.0527 3.7806 11.642 3.97077 11.642 3.97077C12.0234 4.95704 11.7806 5.69394 11.7113 5.87215C12.162 6.37119 12.4277 7.01285 12.4277 7.79715C12.4277 10.5541 10.7986 11.1601 9.23857 11.3384C9.49286 11.5642 9.71229 11.9919 9.71229 12.6693C9.71229 13.6318 9.70086 14.4043 9.70086 14.6418C9.70086 14.832 9.828 15.0579 10.1746 14.9866C12.9477 14.0358 14.9467 11.3502 14.9467 8.17748C14.9581 4.20833 11.8269 1 7.97914 1Z" fill="#24292F"/>
</svg>
