<svg width="16" height="16" viewBox="0 0 16 16" fill="none" xmlns="http://www.w3.org/2000/svg">
<g clip-path="url(#clip0_2502_834)">
<path d="M7.99957 15.3683L10.9471 6.30157H5.05627L7.99957 15.3683Z" fill="#E24329"/>
<path d="M0.92752 6.30157L0.0299048 9.05617C-0.0513217 9.30625 0.0363974 9.58242 0.25079 9.73834L7.99948 15.3683L0.92752 6.30157Z" fill="#FCA326"/>
<path d="M0.92749 6.30164H5.05611L3.27927 0.841173C3.18833 0.561813 2.792 0.561813 2.69779 0.841173L0.92749 6.30164Z" fill="#E24329"/>
<path d="M15.0757 6.30157L15.9701 9.05617C16.0513 9.30625 15.9636 9.58242 15.7492 9.73834L7.99939 15.3683L15.0757 6.30157Z" fill="#FCA326"/>
<path d="M15.0757 6.30164H10.947L12.7206 0.841173C12.8116 0.561813 13.2079 0.561813 13.3021 0.841173L15.0757 6.30164Z" fill="#E24329"/>
<path d="M7.99939 15.3683L10.947 6.30157H15.0757L7.99939 15.3683Z" fill="#FC6D26"/>
<path d="M7.9994 15.3683L0.92749 6.30157H5.05611L7.9994 15.3683Z" fill="#FC6D26"/>
</g>
<defs>
<clipPath id="clip0_2502_834">
<rect width="16" height="16" fill="white"/>
</clipPath>
</defs>
</svg>
