<svg width="16" height="16" viewBox="0 0 16 16" fill="none" xmlns="http://www.w3.org/2000/svg">
<path fill-rule="evenodd" clip-rule="evenodd" d="M14.7 8.15554C14.7 7.57997 14.6533 7.15997 14.5523 6.72443H7.97998V9.32218H11.8377C11.76 9.96777 11.34 10.94 10.4066 11.5933L10.3936 11.6803L12.4716 13.2901L12.6155 13.3045C13.9378 12.0834 14.7 10.2867 14.7 8.15554Z" fill="#4285F4"/>
<path fill-rule="evenodd" clip-rule="evenodd" d="M7.98022 15C9.87019 15 11.4568 14.3778 12.6158 13.3045L10.4069 11.5933C9.81576 12.0055 9.02242 12.2933 7.98022 12.2933C6.12911 12.2933 4.558 11.0722 3.99793 9.38446L3.91586 9.39143L1.75507 11.0637L1.72681 11.1422C2.87791 13.4289 5.2424 15 7.98022 15Z" fill="#34A853"/>
<path fill-rule="evenodd" clip-rule="evenodd" d="M3.9977 9.38448C3.84994 8.94893 3.76439 8.48223 3.76439 8.00002C3.76439 7.51778 3.8499 7.05111 3.98993 6.61557L3.98602 6.52279L1.79819 4.82367L1.72662 4.85773C1.25218 5.80664 0.97998 6.87219 0.97998 7.99998C0.97998 9.12777 1.25223 10.1933 1.72662 11.1422L3.99774 9.38443" fill="#FBBC04"/>
<path fill-rule="evenodd" clip-rule="evenodd" d="M7.98022 3.70662C9.29466 3.70662 10.1813 4.27442 10.6869 4.7489L12.6625 2.82C11.4492 1.69221 9.87019 1 7.98022 1C5.2424 1 2.87795 2.5711 1.72681 4.85776L3.99016 6.6156C4.558 4.92782 6.12911 3.70666 7.98022 3.70666" fill="#EA4335"/>
</svg>
