<svg width="16" height="16" viewBox="0 0 16 16" fill="none" xmlns="http://www.w3.org/2000/svg">
<path d="M11.013 5.51301V3.9479C11.4349 3.74999 11.7057 3.32811 11.7083 2.86197V2.82551C11.7083 2.15884 11.1667 1.61978 10.5026 1.61978H10.4661C9.79948 1.61978 9.26042 2.15884 9.26042 2.82551V2.86197C9.26302 3.32811 9.53385 3.74999 9.95573 3.9479V5.51301C9.35937 5.60415 8.79948 5.85155 8.33073 6.22915L4.03646 2.8828C4.06771 2.77343 4.08333 2.65884 4.08594 2.54426C4.08594 1.79426 3.47917 1.18488 2.72917 1.18488C1.97917 1.18228 1.36979 1.78905 1.36719 2.53905C1.36719 3.29165 1.97396 3.90103 2.72396 3.90103C2.96094 3.90103 3.1901 3.83593 3.39323 3.71874L7.6224 7.0104C6.84635 8.18488 6.86719 9.71353 7.67448 10.8672L6.38802 12.1536C6.28646 12.1198 6.17708 12.1042 6.06771 12.1016C5.45313 12.1016 4.95313 12.6016 4.95313 13.2187C4.95313 13.8333 5.45313 14.3333 6.06771 14.3333C6.6849 14.3333 7.1849 13.8333 7.1849 13.2187C7.18229 13.1094 7.16406 13 7.13281 12.8958L8.40365 11.625C9.54167 12.5 11.1016 12.5755 12.3177 11.8125C13.5339 11.0521 14.1484 9.61457 13.8568 8.20832C13.5651 6.80468 12.4297 5.72915 11.013 5.51301ZM10.4844 10.6641C9.84375 10.6797 9.24479 10.3489 8.92187 9.79686C8.59635 9.24478 8.59635 8.56249 8.92187 8.0104C9.24479 7.45832 9.84375 7.12759 10.4844 7.14322C11.4323 7.17707 12.1823 7.95572 12.1823 8.90363C12.1849 9.84895 11.4349 10.6276 10.487 10.6614" fill="#FF7A59"/>
</svg>
