<svg width="16" height="16" viewBox="0 0 16 16" fill="none" xmlns="http://www.w3.org/2000/svg">
<path d="M12.9289 12.9289H10.8545V9.68033C10.8545 8.90563 10.8407 7.90839 9.77562 7.90839C8.69517 7.90839 8.52983 8.7524 8.52983 9.62391V12.9287H6.45547V6.24817H8.44688V7.16113H8.47481C8.88025 6.46785 9.63695 6.05224 10.4396 6.08204C12.5421 6.08204 12.9297 7.46497 12.9297 9.2641L12.9289 12.9289ZM4.11485 5.33497C3.45446 5.33497 2.91079 4.79161 2.91079 4.1312C2.91079 3.47081 3.45421 2.92738 4.1146 2.92738C4.77493 2.92738 5.31829 3.47068 5.31841 4.13096C5.31841 4.79123 4.77512 5.33491 4.11485 5.33497ZM5.15203 12.9289H3.07549V6.24817H5.15203V12.9289ZM13.963 1.00097H2.03305C1.47303 0.994641 1.00683 1.45002 1 2.01004V13.9897C1.00658 14.55 1.47272 15.0059 2.03305 14.9999H13.963C14.5247 15.007 14.9925 14.5511 15 13.9897V2.00923C14.9925 1.44802 14.5241 0.992699 13.963 1.00009V1.00097Z" fill="#0A66C2"/>
</svg>
