<svg width="16" height="16" viewBox="0 0 16 16" fill="none" xmlns="http://www.w3.org/2000/svg">
<path d="M2.33281 1.60396L10.0795 1.03183C11.031 0.95016 11.2756 1.00523 11.8738 1.44016L14.3467 3.18223C14.7546 3.48183 14.8904 3.5635 14.8904 3.8897V13.4438C14.8904 14.0425 14.6729 14.3967 13.9118 14.4509L4.91582 14.9955C4.34462 15.0225 4.07255 14.9409 3.77341 14.5596L1.95248 12.1917C1.62581 11.7559 1.49048 11.4297 1.49048 11.0484V2.55596C1.49048 2.06643 1.70795 1.65809 2.33281 1.60396Z" fill="white"/>
<path fill-rule="evenodd" clip-rule="evenodd" d="M10.0795 1.03183L2.33281 1.60396C1.70795 1.65809 1.49048 2.06643 1.49048 2.55596V11.0484C1.49048 11.4297 1.62581 11.7559 1.95248 12.1917L3.77341 14.5596C4.07255 14.9409 4.34462 15.0225 4.91582 14.9955L13.9118 14.4509C14.6724 14.3967 14.8904 14.0425 14.8904 13.4438V3.8897C14.8904 3.5803 14.7681 3.49116 14.4083 3.22703C14.3876 3.21212 14.3669 3.19718 14.3462 3.18223L11.8738 1.44016C11.2756 1.00523 11.031 0.95016 10.0795 1.03183ZM5.11929 3.73336C4.38475 3.78283 4.21815 3.79403 3.80095 3.45476L2.74021 2.61103C2.63241 2.50183 2.68654 2.36556 2.95814 2.33849L10.4052 1.79436C11.0306 1.73976 11.3563 1.95769 11.6008 2.14809L12.8781 3.07349C12.9327 3.10103 13.0685 3.26389 12.9052 3.26389L5.21449 3.72683L5.11929 3.73336ZM4.26295 13.3621V5.25144C4.26295 4.89724 4.37168 4.7339 4.69742 4.70637L13.5305 4.1893C13.8301 4.16223 13.9654 4.35263 13.9654 4.70637V12.7629C13.9654 13.1171 13.9108 13.4167 13.4218 13.4438L4.96902 13.9338C4.47995 13.9609 4.26295 13.798 4.26295 13.3621ZM12.607 5.68637C12.6611 5.93137 12.607 6.17637 12.362 6.20437L11.9546 6.2851V12.2734C11.6008 12.4638 11.2751 12.5725 11.003 12.5725C10.5681 12.5725 10.4593 12.4363 10.1336 12.0284L7.46942 7.83677V11.8921L8.31224 12.083C8.31224 12.083 8.31224 12.573 7.63229 12.573L5.75769 12.6817C5.70309 12.5725 5.75769 12.3005 5.94762 12.2463L6.43716 12.1105V6.7485L5.75769 6.69344C5.70309 6.44844 5.83889 6.0947 6.21969 6.06717L8.23104 5.93184L11.003 10.1776V6.42137L10.2965 6.34017C10.2419 6.0401 10.4593 5.82217 10.7309 5.79557L12.607 5.68637Z" fill="black"/>
</svg>
