<svg width="16" height="16" viewBox="0 0 16 16" fill="none" xmlns="http://www.w3.org/2000/svg">
<path d="M3.94137 9.84695C3.94137 10.6564 3.28013 11.3176 2.47069 11.3176C1.66124 11.3176 1 10.6564 1 9.84695C1 9.03747 1.66124 8.37625 2.47069 8.37625H3.94137V9.84695Z" fill="#E01E5A"/>
<path d="M4.68237 9.84695C4.68237 9.03747 5.34361 8.37625 6.15306 8.37625C6.9625 8.37625 7.62374 9.03747 7.62374 9.84695V13.5293C7.62374 14.3388 6.9625 15 6.15306 15C5.34361 15 4.68237 14.3388 4.68237 13.5293V9.84695Z" fill="#E01E5A"/>
<path d="M6.15306 3.94137C5.34361 3.94137 4.68237 3.28013 4.68237 2.47069C4.68237 1.66124 5.34361 1 6.15306 1C6.9625 1 7.62374 1.66124 7.62374 2.47069V3.94137H6.15306Z" fill="#36C5F0"/>
<path d="M6.15309 4.68237C6.96254 4.68237 7.62378 5.34361 7.62378 6.15306C7.62378 6.9625 6.96254 7.62374 6.15309 7.62374H2.47069C1.66124 7.62374 1 6.9625 1 6.15306C1 5.34361 1.66124 4.68237 2.47069 4.68237H6.15309Z" fill="#36C5F0"/>
<path d="M12.0585 6.15306C12.0585 5.34361 12.7197 4.68237 13.5291 4.68237C14.3386 4.68237 14.9998 5.34361 14.9998 6.15306C14.9998 6.9625 14.3386 7.62374 13.5291 7.62374H12.0585V6.15306Z" fill="#2EB67D"/>
<path d="M11.3176 6.15309C11.3176 6.96254 10.6563 7.62378 9.84685 7.62378C9.03744 7.62378 8.37622 6.96254 8.37622 6.15309V2.47069C8.37622 1.66124 9.03744 1 9.84685 1C10.6563 1 11.3176 1.66124 11.3176 2.47069V6.15309Z" fill="#2EB67D"/>
<path d="M9.84685 12.0586C10.6563 12.0586 11.3176 12.7199 11.3176 13.5293C11.3176 14.3388 10.6563 15 9.84685 15C9.03744 15 8.37622 14.3388 8.37622 13.5293V12.0586H9.84685Z" fill="#ECB22E"/>
<path d="M9.84685 11.3176C9.03744 11.3176 8.37622 10.6564 8.37622 9.84695C8.37622 9.03747 9.03744 8.37625 9.84685 8.37625H13.5293C14.3388 8.37625 15 9.03747 15 9.84695C15 10.6564 14.3388 11.3176 13.5293 11.3176H9.84685Z" fill="#ECB22E"/>
</svg>
