<svg width="16" height="16" viewBox="0 0 16 16" fill="none" xmlns="http://www.w3.org/2000/svg">
<path d="M6.60974 5.91839V5.33278C6.40646 5.30058 6.20114 5.28293 5.99535 5.27998C4.00296 5.27577 2.23902 6.56688 1.64074 8.46732C1.04245 10.3678 1.74866 12.4365 3.38415 13.5744C2.15905 12.2633 1.81888 10.3546 2.51559 8.70096C3.21229 7.0473 4.81576 5.95753 6.60974 5.91839Z" fill="#25F4EE"/>
<path d="M6.72004 12.552C7.834 12.5505 8.74966 11.6729 8.79844 10.56V0.6288H10.6128C10.5758 0.421288 10.5581 0.210783 10.56 0H8.07844V9.9216C8.03716 11.0402 7.11934 11.9262 6.00004 11.928C5.66555 11.9252 5.33652 11.8429 5.04004 11.688C5.42976 12.2279 6.05416 12.5491 6.72004 12.552Z" fill="#25F4EE"/>
<path d="M14.0014 3.9984V3.4464C13.3337 3.44663 12.6808 3.24959 12.1246 2.88C12.6122 3.44675 13.271 3.83934 14.0014 3.9984Z" fill="#25F4EE"/>
<path d="M12.125 2.87999C11.5772 2.25615 11.2752 1.45422 11.2754 0.623993H10.613C10.786 1.55168 11.3327 2.36746 12.125 2.87999Z" fill="#FE2C55"/>
<path d="M5.99519 7.7616C5.03925 7.76652 4.20933 8.42142 3.98229 9.34998C3.75525 10.2786 4.18936 11.2426 5.03519 11.688C4.57688 11.0552 4.51214 10.219 4.86761 9.5232C5.22308 8.82744 5.9387 8.3898 6.71999 8.3904C6.92831 8.39298 7.13519 8.42532 7.33439 8.4864V5.9616C7.13099 5.93112 6.92567 5.91509 6.71999 5.9136H6.60959V7.8336C6.40937 7.7799 6.20243 7.75566 5.99519 7.7616Z" fill="#FE2C55"/>
<path d="M14.0015 3.99841V5.91841C12.7654 5.91603 11.5613 5.52475 10.5599 4.80001V9.84481C10.5546 12.3621 8.51245 14.4 5.99511 14.4C5.06025 14.4017 4.1479 14.1132 3.38391 13.5744C4.6589 14.9457 6.64315 15.3971 8.38585 14.7123C10.1285 14.0275 11.2747 12.346 11.2751 10.4736V5.44321C12.2799 6.16321 13.4854 6.54937 14.7215 6.54721V4.07521C14.4795 4.07445 14.2382 4.04871 14.0015 3.99841Z" fill="#FE2C55"/>
<path d="M10.56 9.8448V4.79999C11.5645 5.52056 12.7702 5.9068 14.0064 5.90399V3.98399C13.2761 3.82977 12.6157 3.4423 12.1248 2.87999C11.3324 2.36746 10.7857 1.55168 10.6128 0.623993H8.7984V10.56C8.7621 11.4464 8.16834 12.2126 7.31904 12.4691C6.46968 12.7255 5.55115 12.4159 5.03038 11.6976C4.18454 11.2522 3.75043 10.2882 3.97747 9.35958C4.20452 8.43102 5.03444 7.77612 5.99038 7.7712C6.19878 7.77306 6.40578 7.8054 6.6048 7.8672V5.94719C4.80073 5.97776 3.18515 7.07136 2.48647 8.73486C1.78778 10.3984 2.13799 12.3176 3.37918 13.6272C4.1507 14.1482 5.06437 14.4181 5.99518 14.4C8.5125 14.4 10.5547 12.3621 10.56 9.8448Z" fill="black"/>
</svg>
