<svg width="16" height="16" viewBox="0 0 16 16" fill="none" xmlns="http://www.w3.org/2000/svg">
<mask id="mask0_2502_830" style="mask-type:luminance" maskUnits="userSpaceOnUse" x="1" y="1" width="14" height="14">
<path d="M15 1H1V15H15V1Z" fill="white"/>
</mask>
<g mask="url(#mask0_2502_830)">
<path d="M7.99994 14.9733C11.8512 14.9733 14.9732 11.8513 14.9732 7.99997C14.9732 4.14873 11.8512 1.02667 7.99994 1.02667C4.14867 1.02667 1.02661 4.14873 1.02661 7.99997C1.02661 11.8513 4.14867 14.9733 7.99994 14.9733Z" fill="#1AB4D7"/>
<path d="M4.36467 7.97988L5.55473 6.78688C5.59418 6.74667 5.61619 6.69343 5.61619 6.63697C5.61619 6.5193 5.52054 6.42374 5.40287 6.42374C5.34555 6.42374 5.29181 6.44621 5.2513 6.48723L4.06231 7.67564L2.86801 6.48544C2.82765 6.44566 2.77418 6.42374 2.71748 6.42374C2.59995 6.42374 2.50427 6.51925 2.50427 6.6368C2.50427 6.69415 2.52716 6.74796 2.56825 6.7885L3.75814 7.97822L2.56887 9.16973C2.52707 9.21089 2.50427 9.26479 2.50427 9.3224C2.50427 9.44007 2.59995 9.53548 2.71748 9.53548C2.77428 9.53548 2.8278 9.51343 2.86801 9.47325L4.06046 8.28241L5.24838 9.46891C5.29051 9.51245 5.34487 9.53562 5.40287 9.53562C5.52042 9.53562 5.61608 9.44007 5.61608 9.3224C5.61608 9.26563 5.59409 9.21229 5.55406 9.17211L4.36467 7.97988Z" fill="white"/>
<path d="M11.4393 7.97953C11.4393 8.19316 11.6131 8.36697 11.827 8.36697C12.0404 8.36697 12.2142 8.19316 12.2142 7.97953C12.2142 7.76582 12.0404 7.59204 11.827 7.59204C11.6131 7.59204 11.4393 7.76582 11.4393 7.97953Z" fill="white"/>
<path d="M10.7045 7.97969C10.7045 7.36096 11.2078 6.85753 11.8266 6.85753C12.4451 6.85753 12.9485 7.36096 12.9485 7.97969C12.9485 8.59828 12.4451 9.10151 11.8266 9.10151C11.2078 9.10151 10.7045 8.59828 10.7045 7.97969ZM10.2631 7.97969C10.2631 8.84167 10.9645 9.543 11.8266 9.543C12.6887 9.543 13.3905 8.84167 13.3905 7.97969C13.3905 7.11757 12.6887 6.41608 11.8266 6.41608C10.9645 6.41608 10.2631 7.11757 10.2631 7.97969Z" fill="white"/>
<path d="M10.152 6.44279L10.0864 6.4426C9.88947 6.4426 9.69956 6.50471 9.54094 6.62696C9.52001 6.5313 9.43447 6.45933 9.33269 6.45933C9.21544 6.45933 9.1215 6.55325 9.12122 6.67071L9.12192 9.3041C9.12227 9.42135 9.21789 9.51662 9.33514 9.51662C9.45246 9.51662 9.54808 9.42135 9.54836 9.30382L9.54843 7.68463C9.54843 7.14496 9.59778 6.927 10.0601 6.86923C10.1028 6.86392 10.1494 6.86475 10.1494 6.86475C10.276 6.86041 10.3659 6.77348 10.3659 6.656C10.3659 6.53844 10.2699 6.44279 10.152 6.44279Z" fill="white"/>
<path d="M6.05791 7.72227C6.05791 7.71643 6.05836 7.71035 6.05864 7.70435C6.18243 7.215 6.62563 6.85287 7.15344 6.85287C7.68764 6.85287 8.13489 7.2239 8.25235 7.72227H6.05791ZM8.689 7.682C8.59709 7.24697 8.35895 6.88964 7.99626 6.66016C7.46613 6.32358 6.76607 6.3422 6.25401 6.70635C5.83632 7.00349 5.59521 7.48958 5.59521 7.9903C5.59521 8.11586 5.61035 8.24256 5.64186 8.3673C5.79957 8.98778 6.33294 9.45741 6.96885 9.53525C7.15754 9.55814 7.34122 9.54715 7.53141 9.49794C7.69485 9.45818 7.85299 9.39189 7.99871 9.29851C8.14993 9.20128 8.27628 9.07304 8.39864 8.9196C8.40116 8.9168 8.40361 8.91428 8.40613 8.91134C8.49104 8.80599 8.47529 8.65619 8.38198 8.58465C8.30323 8.52438 8.17107 8.49988 8.06712 8.63309C8.04472 8.66487 8.0198 8.69763 7.99238 8.73039C7.90969 8.82181 7.80712 8.91029 7.6842 8.97896C7.52779 9.06254 7.34955 9.11028 7.16006 9.11133C6.53986 9.1044 6.20799 8.67152 6.08993 8.36254C6.06932 8.30479 6.05342 8.24494 6.04234 8.18334C6.0409 8.17179 6.03983 8.16066 6.0394 8.15044C6.16763 8.15044 8.26501 8.15009 8.26501 8.15009C8.57014 8.14365 8.73436 7.92828 8.689 7.682Z" fill="white"/>
</g>
</svg>
